<mxfile host="app.diagrams.net" modified="2022-05-10T01:06:09.814Z" agent="5.0 (Macintosh; Intel Mac OS X 10_15_7) AppleWebKit/605.1.15 (KHTML, like Gecko) Version/15.0 Safari/605.1.15" etag="7xR_0dU5PY7zPvc6MpqX" version="18.0.2" type="github">
  <diagram id="sGBOU9-vc2qiGp-AH_Su" name="Page-1">
    <mxGraphModel dx="892" dy="1045" grid="0" gridSize="10" guides="1" tooltips="1" connect="1" arrows="1" fold="1" page="0" pageScale="1" pageWidth="827" pageHeight="1169" math="0" shadow="0">
      <root>
        <mxCell id="0" />
        <mxCell id="1" parent="0" />
        <mxCell id="ya3OjVrlaqZjOPBKilio-22" value="" style="rounded=1;whiteSpace=wrap;html=1;fontSize=24;" vertex="1" parent="1">
          <mxGeometry x="550" y="1537" width="560" height="368" as="geometry" />
        </mxCell>
        <mxCell id="ya3OjVrlaqZjOPBKilio-56" value="" style="rounded=1;whiteSpace=wrap;html=1;fontSize=24;dashed=1;" vertex="1" parent="1">
          <mxGeometry x="853" y="1607" width="240" height="215" as="geometry" />
        </mxCell>
        <mxCell id="ya3OjVrlaqZjOPBKilio-55" value="" style="rounded=1;whiteSpace=wrap;html=1;fontSize=24;dashed=1;" vertex="1" parent="1">
          <mxGeometry x="572" y="1547" width="250" height="280" as="geometry" />
        </mxCell>
        <mxCell id="KoWvNJ70BlwEiqUcauCs-13" value="" style="rounded=1;whiteSpace=wrap;html=1;" parent="1" vertex="1">
          <mxGeometry x="200" y="300" width="370" height="310" as="geometry" />
        </mxCell>
        <mxCell id="KoWvNJ70BlwEiqUcauCs-7" style="rounded=0;orthogonalLoop=1;jettySize=auto;html=1;" parent="1" source="KoWvNJ70BlwEiqUcauCs-1" target="KoWvNJ70BlwEiqUcauCs-2" edge="1">
          <mxGeometry relative="1" as="geometry" />
        </mxCell>
        <mxCell id="KoWvNJ70BlwEiqUcauCs-1" value="1" style="ellipse;whiteSpace=wrap;html=1;aspect=fixed;" parent="1" vertex="1">
          <mxGeometry x="240" y="330" width="50" height="50" as="geometry" />
        </mxCell>
        <mxCell id="KoWvNJ70BlwEiqUcauCs-8" style="edgeStyle=none;rounded=0;orthogonalLoop=1;jettySize=auto;html=1;entryX=0.5;entryY=0;entryDx=0;entryDy=0;" parent="1" source="KoWvNJ70BlwEiqUcauCs-2" target="KoWvNJ70BlwEiqUcauCs-3" edge="1">
          <mxGeometry relative="1" as="geometry" />
        </mxCell>
        <mxCell id="KoWvNJ70BlwEiqUcauCs-2" value="?a" style="whiteSpace=wrap;html=1;aspect=fixed;" parent="1" vertex="1">
          <mxGeometry x="320" y="380" width="50" height="50" as="geometry" />
        </mxCell>
        <mxCell id="KoWvNJ70BlwEiqUcauCs-9" style="edgeStyle=none;rounded=0;orthogonalLoop=1;jettySize=auto;html=1;entryX=0.25;entryY=1;entryDx=0;entryDy=0;" parent="1" source="KoWvNJ70BlwEiqUcauCs-3" target="KoWvNJ70BlwEiqUcauCs-4" edge="1">
          <mxGeometry relative="1" as="geometry" />
        </mxCell>
        <mxCell id="KoWvNJ70BlwEiqUcauCs-3" value="?b" style="whiteSpace=wrap;html=1;aspect=fixed;" parent="1" vertex="1">
          <mxGeometry x="320" y="490" width="50" height="50" as="geometry" />
        </mxCell>
        <mxCell id="KoWvNJ70BlwEiqUcauCs-10" style="edgeStyle=none;rounded=0;orthogonalLoop=1;jettySize=auto;html=1;" parent="1" source="KoWvNJ70BlwEiqUcauCs-4" target="KoWvNJ70BlwEiqUcauCs-2" edge="1">
          <mxGeometry relative="1" as="geometry" />
        </mxCell>
        <mxCell id="KoWvNJ70BlwEiqUcauCs-4" value="?c" style="whiteSpace=wrap;html=1;aspect=fixed;" parent="1" vertex="1">
          <mxGeometry x="414" y="430" width="50" height="50" as="geometry" />
        </mxCell>
        <mxCell id="KoWvNJ70BlwEiqUcauCs-12" style="edgeStyle=none;rounded=0;orthogonalLoop=1;jettySize=auto;html=1;entryX=0;entryY=0.5;entryDx=0;entryDy=0;" parent="1" source="KoWvNJ70BlwEiqUcauCs-5" target="KoWvNJ70BlwEiqUcauCs-3" edge="1">
          <mxGeometry relative="1" as="geometry" />
        </mxCell>
        <mxCell id="KoWvNJ70BlwEiqUcauCs-5" value="2" style="ellipse;whiteSpace=wrap;html=1;aspect=fixed;" parent="1" vertex="1">
          <mxGeometry x="220" y="535" width="50" height="50" as="geometry" />
        </mxCell>
        <mxCell id="KoWvNJ70BlwEiqUcauCs-11" style="edgeStyle=none;rounded=0;orthogonalLoop=1;jettySize=auto;html=1;" parent="1" source="KoWvNJ70BlwEiqUcauCs-6" target="KoWvNJ70BlwEiqUcauCs-4" edge="1">
          <mxGeometry relative="1" as="geometry" />
        </mxCell>
        <mxCell id="KoWvNJ70BlwEiqUcauCs-6" value="3" style="ellipse;whiteSpace=wrap;html=1;aspect=fixed;" parent="1" vertex="1">
          <mxGeometry x="510" y="350" width="50" height="50" as="geometry" />
        </mxCell>
        <mxCell id="KoWvNJ70BlwEiqUcauCs-14" value="" style="rounded=0;whiteSpace=wrap;html=1;fillColor=none;dashed=1;strokeWidth=2;strokeColor=#d79b00;" parent="1" vertex="1">
          <mxGeometry x="300" y="360" width="190" height="200" as="geometry" />
        </mxCell>
        <mxCell id="KoWvNJ70BlwEiqUcauCs-15" value="" style="rounded=1;whiteSpace=wrap;html=1;" parent="1" vertex="1">
          <mxGeometry x="680" y="230" width="420" height="415" as="geometry" />
        </mxCell>
        <mxCell id="KoWvNJ70BlwEiqUcauCs-16" style="rounded=0;orthogonalLoop=1;jettySize=auto;html=1;" parent="1" source="KoWvNJ70BlwEiqUcauCs-17" target="KoWvNJ70BlwEiqUcauCs-19" edge="1">
          <mxGeometry relative="1" as="geometry" />
        </mxCell>
        <mxCell id="KoWvNJ70BlwEiqUcauCs-17" value="1" style="ellipse;whiteSpace=wrap;html=1;aspect=fixed;" parent="1" vertex="1">
          <mxGeometry x="750" y="290" width="50" height="50" as="geometry" />
        </mxCell>
        <mxCell id="KoWvNJ70BlwEiqUcauCs-18" style="edgeStyle=none;rounded=0;orthogonalLoop=1;jettySize=auto;html=1;entryX=0.5;entryY=0;entryDx=0;entryDy=0;" parent="1" source="KoWvNJ70BlwEiqUcauCs-19" target="KoWvNJ70BlwEiqUcauCs-21" edge="1">
          <mxGeometry relative="1" as="geometry" />
        </mxCell>
        <mxCell id="KoWvNJ70BlwEiqUcauCs-19" value="?a" style="whiteSpace=wrap;html=1;aspect=fixed;" parent="1" vertex="1">
          <mxGeometry x="830" y="340" width="50" height="50" as="geometry" />
        </mxCell>
        <mxCell id="KoWvNJ70BlwEiqUcauCs-21" value="?b" style="whiteSpace=wrap;html=1;aspect=fixed;" parent="1" vertex="1">
          <mxGeometry x="830" y="450" width="50" height="50" as="geometry" />
        </mxCell>
        <mxCell id="KoWvNJ70BlwEiqUcauCs-22" style="edgeStyle=none;rounded=0;orthogonalLoop=1;jettySize=auto;html=1;" parent="1" source="KoWvNJ70BlwEiqUcauCs-23" target="KoWvNJ70BlwEiqUcauCs-19" edge="1">
          <mxGeometry relative="1" as="geometry" />
        </mxCell>
        <mxCell id="KoWvNJ70BlwEiqUcauCs-23" value="?c" style="whiteSpace=wrap;html=1;aspect=fixed;" parent="1" vertex="1">
          <mxGeometry x="924" y="390" width="50" height="50" as="geometry" />
        </mxCell>
        <mxCell id="KoWvNJ70BlwEiqUcauCs-24" style="edgeStyle=none;rounded=0;orthogonalLoop=1;jettySize=auto;html=1;entryX=0;entryY=0.5;entryDx=0;entryDy=0;" parent="1" source="KoWvNJ70BlwEiqUcauCs-25" target="KoWvNJ70BlwEiqUcauCs-21" edge="1">
          <mxGeometry relative="1" as="geometry" />
        </mxCell>
        <mxCell id="KoWvNJ70BlwEiqUcauCs-25" value="2" style="ellipse;whiteSpace=wrap;html=1;aspect=fixed;" parent="1" vertex="1">
          <mxGeometry x="730" y="495" width="50" height="50" as="geometry" />
        </mxCell>
        <mxCell id="KoWvNJ70BlwEiqUcauCs-26" style="edgeStyle=none;rounded=0;orthogonalLoop=1;jettySize=auto;html=1;" parent="1" source="KoWvNJ70BlwEiqUcauCs-27" target="KoWvNJ70BlwEiqUcauCs-23" edge="1">
          <mxGeometry relative="1" as="geometry" />
        </mxCell>
        <mxCell id="KoWvNJ70BlwEiqUcauCs-27" value="3" style="ellipse;whiteSpace=wrap;html=1;aspect=fixed;" parent="1" vertex="1">
          <mxGeometry x="1020" y="310" width="50" height="50" as="geometry" />
        </mxCell>
        <mxCell id="KoWvNJ70BlwEiqUcauCs-31" style="edgeStyle=none;rounded=0;orthogonalLoop=1;jettySize=auto;html=1;" parent="1" source="KoWvNJ70BlwEiqUcauCs-29" target="KoWvNJ70BlwEiqUcauCs-17" edge="1">
          <mxGeometry relative="1" as="geometry" />
        </mxCell>
        <mxCell id="KoWvNJ70BlwEiqUcauCs-29" value="?a" style="whiteSpace=wrap;html=1;aspect=fixed;" parent="1" vertex="1">
          <mxGeometry x="720" y="370" width="50" height="50" as="geometry" />
        </mxCell>
        <mxCell id="KoWvNJ70BlwEiqUcauCs-32" style="edgeStyle=none;rounded=0;orthogonalLoop=1;jettySize=auto;html=1;" parent="1" source="KoWvNJ70BlwEiqUcauCs-30" target="KoWvNJ70BlwEiqUcauCs-25" edge="1">
          <mxGeometry relative="1" as="geometry" />
        </mxCell>
        <mxCell id="KoWvNJ70BlwEiqUcauCs-30" value="?b" style="whiteSpace=wrap;html=1;aspect=fixed;" parent="1" vertex="1">
          <mxGeometry x="790" y="560" width="50" height="50" as="geometry" />
        </mxCell>
        <mxCell id="KoWvNJ70BlwEiqUcauCs-34" style="edgeStyle=none;rounded=0;orthogonalLoop=1;jettySize=auto;html=1;entryX=0.5;entryY=1;entryDx=0;entryDy=0;" parent="1" source="KoWvNJ70BlwEiqUcauCs-33" target="KoWvNJ70BlwEiqUcauCs-27" edge="1">
          <mxGeometry relative="1" as="geometry" />
        </mxCell>
        <mxCell id="KoWvNJ70BlwEiqUcauCs-33" value="?c" style="whiteSpace=wrap;html=1;aspect=fixed;" parent="1" vertex="1">
          <mxGeometry x="1020" y="430" width="50" height="50" as="geometry" />
        </mxCell>
        <mxCell id="KoWvNJ70BlwEiqUcauCs-40" value="" style="ellipse;whiteSpace=wrap;html=1;dashed=1;strokeWidth=2;fillColor=none;rotation=30;strokeColor=#EA6B66;" parent="1" vertex="1">
          <mxGeometry x="710" y="291.25" width="210" height="87.5" as="geometry" />
        </mxCell>
        <mxCell id="KoWvNJ70BlwEiqUcauCs-41" value="" style="ellipse;whiteSpace=wrap;html=1;dashed=1;strokeWidth=2;fillColor=none;rotation=-210;strokeColor=#EA6B66;" parent="1" vertex="1">
          <mxGeometry x="700" y="457" width="210" height="87.5" as="geometry" />
        </mxCell>
        <mxCell id="KoWvNJ70BlwEiqUcauCs-42" value="" style="ellipse;whiteSpace=wrap;html=1;dashed=1;strokeWidth=2;fillColor=none;rotation=-215;strokeColor=#EA6B66;" parent="1" vertex="1">
          <mxGeometry x="890" y="336" width="210" height="87.5" as="geometry" />
        </mxCell>
        <mxCell id="ebdNy32ckMW7kplQJxrS-1" value="" style="rounded=0;whiteSpace=wrap;html=1;" parent="1" vertex="1">
          <mxGeometry x="260" y="780" width="970" height="410" as="geometry" />
        </mxCell>
        <mxCell id="ebdNy32ckMW7kplQJxrS-2" value="原始数据集" style="rounded=1;whiteSpace=wrap;html=1;" parent="1" vertex="1">
          <mxGeometry x="330" y="810" width="120" height="60" as="geometry" />
        </mxCell>
        <mxCell id="ebdNy32ckMW7kplQJxrS-3" value="数据读取和解析" style="rounded=0;whiteSpace=wrap;html=1;" parent="1" vertex="1">
          <mxGeometry x="320" y="940" width="145" height="70" as="geometry" />
        </mxCell>
        <mxCell id="ebdNy32ckMW7kplQJxrS-4" value="格式正确？" style="rhombus;whiteSpace=wrap;html=1;" parent="1" vertex="1">
          <mxGeometry x="326.75" y="1060" width="137.5" height="80" as="geometry" />
        </mxCell>
        <mxCell id="ebdNy32ckMW7kplQJxrS-5" value="PredicateTable" style="rounded=0;whiteSpace=wrap;html=1;" parent="1" vertex="1">
          <mxGeometry x="580" y="810" width="120" height="60" as="geometry" />
        </mxCell>
        <mxCell id="ebdNy32ckMW7kplQJxrS-6" value="UriTable" style="rounded=0;whiteSpace=wrap;html=1;" parent="1" vertex="1">
          <mxGeometry x="580" y="945" width="120" height="60" as="geometry" />
        </mxCell>
        <mxCell id="ebdNy32ckMW7kplQJxrS-7" value="字符串映射" style="rounded=0;whiteSpace=wrap;html=1;" parent="1" vertex="1">
          <mxGeometry x="580" y="1070" width="120" height="60" as="geometry" />
        </mxCell>
        <mxCell id="ebdNy32ckMW7kplQJxrS-8" value="写临时文件" style="rounded=0;whiteSpace=wrap;html=1;" parent="1" vertex="1">
          <mxGeometry x="795" y="810" width="120" height="60" as="geometry" />
        </mxCell>
        <mxCell id="ebdNy32ckMW7kplQJxrS-9" value="排序" style="rounded=0;whiteSpace=wrap;html=1;" parent="1" vertex="1">
          <mxGeometry x="1030" y="810" width="120" height="60" as="geometry" />
        </mxCell>
        <mxCell id="ebdNy32ckMW7kplQJxrS-10" value="分布式划分" style="rounded=0;whiteSpace=wrap;html=1;" parent="1" vertex="1">
          <mxGeometry x="795" y="945" width="120" height="60" as="geometry" />
        </mxCell>
        <mxCell id="ebdNy32ckMW7kplQJxrS-11" value="存储" style="rounded=0;whiteSpace=wrap;html=1;" parent="1" vertex="1">
          <mxGeometry x="795" y="1070" width="120" height="60" as="geometry" />
        </mxCell>
        <mxCell id="ebdNy32ckMW7kplQJxrS-12" value="统计索引&lt;br&gt;顶点位图索引" style="rounded=0;whiteSpace=wrap;html=1;" parent="1" vertex="1">
          <mxGeometry x="1030" y="945" width="120" height="60" as="geometry" />
        </mxCell>
        <mxCell id="ebdNy32ckMW7kplQJxrS-13" value="结束" style="rounded=1;whiteSpace=wrap;html=1;" parent="1" vertex="1">
          <mxGeometry x="1030" y="1070" width="120" height="60" as="geometry" />
        </mxCell>
        <mxCell id="Cw_ylAwDzwWPfnoYkPh3-1" style="edgeStyle=none;rounded=0;orthogonalLoop=1;jettySize=auto;html=1;exitX=0.117;exitY=0.376;exitDx=0;exitDy=0;exitPerimeter=0;" parent="1" source="KoWvNJ70BlwEiqUcauCs-41" edge="1">
          <mxGeometry relative="1" as="geometry">
            <mxPoint x="934" y="411.70212765957444" as="sourcePoint" />
            <mxPoint x="930" y="440" as="targetPoint" />
          </mxGeometry>
        </mxCell>
        <mxCell id="ya3OjVrlaqZjOPBKilio-1" value="" style="rounded=1;whiteSpace=wrap;html=1;fontSize=24;" vertex="1" parent="1">
          <mxGeometry x="134" y="1500" width="304" height="442" as="geometry" />
        </mxCell>
        <mxCell id="ya3OjVrlaqZjOPBKilio-2" value="s1" style="ellipse;whiteSpace=wrap;html=1;fontSize=24;" vertex="1" parent="1">
          <mxGeometry x="180" y="1632" width="70" height="60" as="geometry" />
        </mxCell>
        <mxCell id="ya3OjVrlaqZjOPBKilio-10" style="edgeStyle=orthogonalEdgeStyle;rounded=0;orthogonalLoop=1;jettySize=auto;html=1;fontSize=24;" edge="1" parent="1" source="ya3OjVrlaqZjOPBKilio-3" target="ya3OjVrlaqZjOPBKilio-2">
          <mxGeometry relative="1" as="geometry" />
        </mxCell>
        <mxCell id="ya3OjVrlaqZjOPBKilio-16" value="pt" style="edgeLabel;html=1;align=center;verticalAlign=middle;resizable=0;points=[];fontSize=24;" vertex="1" connectable="0" parent="ya3OjVrlaqZjOPBKilio-10">
          <mxGeometry x="-0.1333" y="-1" relative="1" as="geometry">
            <mxPoint as="offset" />
          </mxGeometry>
        </mxCell>
        <mxCell id="ya3OjVrlaqZjOPBKilio-11" style="edgeStyle=orthogonalEdgeStyle;rounded=0;orthogonalLoop=1;jettySize=auto;html=1;entryX=0.5;entryY=1;entryDx=0;entryDy=0;fontSize=24;" edge="1" parent="1" source="ya3OjVrlaqZjOPBKilio-3" target="ya3OjVrlaqZjOPBKilio-4">
          <mxGeometry relative="1" as="geometry" />
        </mxCell>
        <mxCell id="ya3OjVrlaqZjOPBKilio-17" value="p1" style="edgeLabel;html=1;align=center;verticalAlign=middle;resizable=0;points=[];fontSize=24;" vertex="1" connectable="0" parent="ya3OjVrlaqZjOPBKilio-11">
          <mxGeometry x="-0.2889" y="-1" relative="1" as="geometry">
            <mxPoint as="offset" />
          </mxGeometry>
        </mxCell>
        <mxCell id="ya3OjVrlaqZjOPBKilio-12" style="edgeStyle=orthogonalEdgeStyle;rounded=0;orthogonalLoop=1;jettySize=auto;html=1;fontSize=24;" edge="1" parent="1" source="ya3OjVrlaqZjOPBKilio-3" target="ya3OjVrlaqZjOPBKilio-6">
          <mxGeometry relative="1" as="geometry" />
        </mxCell>
        <mxCell id="ya3OjVrlaqZjOPBKilio-18" value="p2" style="edgeLabel;html=1;align=center;verticalAlign=middle;resizable=0;points=[];fontSize=24;" vertex="1" connectable="0" parent="ya3OjVrlaqZjOPBKilio-12">
          <mxGeometry x="0.0182" relative="1" as="geometry">
            <mxPoint as="offset" />
          </mxGeometry>
        </mxCell>
        <mxCell id="ya3OjVrlaqZjOPBKilio-3" value="&lt;span style=&quot;font-weight: normal; font-size: 24px;&quot;&gt;?x&lt;/span&gt;" style="rounded=0;whiteSpace=wrap;html=1;fontStyle=1;fontSize=24;" vertex="1" parent="1">
          <mxGeometry x="320" y="1637" width="60" height="50" as="geometry" />
        </mxCell>
        <mxCell id="ya3OjVrlaqZjOPBKilio-4" value="s2" style="ellipse;whiteSpace=wrap;html=1;fontSize=24;" vertex="1" parent="1">
          <mxGeometry x="315" y="1532" width="70" height="60" as="geometry" />
        </mxCell>
        <mxCell id="ya3OjVrlaqZjOPBKilio-5" value="s3" style="ellipse;whiteSpace=wrap;html=1;fontSize=24;" vertex="1" parent="1">
          <mxGeometry x="180" y="1737" width="70" height="60" as="geometry" />
        </mxCell>
        <mxCell id="ya3OjVrlaqZjOPBKilio-13" style="edgeStyle=orthogonalEdgeStyle;rounded=0;orthogonalLoop=1;jettySize=auto;html=1;fontSize=24;" edge="1" parent="1" source="ya3OjVrlaqZjOPBKilio-6" target="ya3OjVrlaqZjOPBKilio-5">
          <mxGeometry relative="1" as="geometry" />
        </mxCell>
        <mxCell id="ya3OjVrlaqZjOPBKilio-19" value="pt" style="edgeLabel;html=1;align=center;verticalAlign=middle;resizable=0;points=[];fontSize=24;" vertex="1" connectable="0" parent="ya3OjVrlaqZjOPBKilio-13">
          <mxGeometry x="-0.1905" y="2" relative="1" as="geometry">
            <mxPoint as="offset" />
          </mxGeometry>
        </mxCell>
        <mxCell id="ya3OjVrlaqZjOPBKilio-14" style="edgeStyle=orthogonalEdgeStyle;rounded=0;orthogonalLoop=1;jettySize=auto;html=1;entryX=0.5;entryY=0;entryDx=0;entryDy=0;fontSize=24;" edge="1" parent="1" source="ya3OjVrlaqZjOPBKilio-6" target="ya3OjVrlaqZjOPBKilio-8">
          <mxGeometry relative="1" as="geometry" />
        </mxCell>
        <mxCell id="ya3OjVrlaqZjOPBKilio-20" value="p3" style="edgeLabel;html=1;align=center;verticalAlign=middle;resizable=0;points=[];fontSize=24;" vertex="1" connectable="0" parent="ya3OjVrlaqZjOPBKilio-14">
          <mxGeometry x="-0.2667" y="-1" relative="1" as="geometry">
            <mxPoint as="offset" />
          </mxGeometry>
        </mxCell>
        <mxCell id="ya3OjVrlaqZjOPBKilio-6" value="?y" style="rounded=0;whiteSpace=wrap;html=1;fontSize=24;" vertex="1" parent="1">
          <mxGeometry x="320" y="1742" width="60" height="50" as="geometry" />
        </mxCell>
        <mxCell id="ya3OjVrlaqZjOPBKilio-7" value="s4" style="ellipse;whiteSpace=wrap;html=1;fontSize=24;" vertex="1" parent="1">
          <mxGeometry x="180" y="1837" width="70" height="60" as="geometry" />
        </mxCell>
        <mxCell id="ya3OjVrlaqZjOPBKilio-15" style="edgeStyle=orthogonalEdgeStyle;rounded=0;orthogonalLoop=1;jettySize=auto;html=1;entryX=1;entryY=0.5;entryDx=0;entryDy=0;fontSize=24;" edge="1" parent="1" source="ya3OjVrlaqZjOPBKilio-8" target="ya3OjVrlaqZjOPBKilio-7">
          <mxGeometry relative="1" as="geometry" />
        </mxCell>
        <mxCell id="ya3OjVrlaqZjOPBKilio-21" value="pt" style="edgeLabel;html=1;align=center;verticalAlign=middle;resizable=0;points=[];fontSize=24;" vertex="1" connectable="0" parent="ya3OjVrlaqZjOPBKilio-15">
          <mxGeometry x="-0.0762" relative="1" as="geometry">
            <mxPoint as="offset" />
          </mxGeometry>
        </mxCell>
        <mxCell id="ya3OjVrlaqZjOPBKilio-8" value="?z" style="rounded=0;whiteSpace=wrap;html=1;fontSize=24;" vertex="1" parent="1">
          <mxGeometry x="320" y="1842" width="60" height="50" as="geometry" />
        </mxCell>
        <mxCell id="ya3OjVrlaqZjOPBKilio-23" value="s1" style="ellipse;whiteSpace=wrap;html=1;fontSize=24;" vertex="1" parent="1">
          <mxGeometry x="590" y="1657" width="70" height="60" as="geometry" />
        </mxCell>
        <mxCell id="ya3OjVrlaqZjOPBKilio-24" style="edgeStyle=orthogonalEdgeStyle;rounded=0;orthogonalLoop=1;jettySize=auto;html=1;fontSize=24;" edge="1" parent="1" source="ya3OjVrlaqZjOPBKilio-30" target="ya3OjVrlaqZjOPBKilio-23">
          <mxGeometry relative="1" as="geometry" />
        </mxCell>
        <mxCell id="ya3OjVrlaqZjOPBKilio-25" value="pt" style="edgeLabel;html=1;align=center;verticalAlign=middle;resizable=0;points=[];fontSize=24;" vertex="1" connectable="0" parent="ya3OjVrlaqZjOPBKilio-24">
          <mxGeometry x="-0.1333" y="-1" relative="1" as="geometry">
            <mxPoint as="offset" />
          </mxGeometry>
        </mxCell>
        <mxCell id="ya3OjVrlaqZjOPBKilio-26" style="edgeStyle=orthogonalEdgeStyle;rounded=0;orthogonalLoop=1;jettySize=auto;html=1;entryX=0.5;entryY=1;entryDx=0;entryDy=0;fontSize=24;" edge="1" parent="1" source="ya3OjVrlaqZjOPBKilio-30" target="ya3OjVrlaqZjOPBKilio-31">
          <mxGeometry relative="1" as="geometry" />
        </mxCell>
        <mxCell id="ya3OjVrlaqZjOPBKilio-27" value="p1" style="edgeLabel;html=1;align=center;verticalAlign=middle;resizable=0;points=[];fontSize=24;" vertex="1" connectable="0" parent="ya3OjVrlaqZjOPBKilio-26">
          <mxGeometry x="-0.2889" y="-1" relative="1" as="geometry">
            <mxPoint as="offset" />
          </mxGeometry>
        </mxCell>
        <mxCell id="ya3OjVrlaqZjOPBKilio-28" style="edgeStyle=orthogonalEdgeStyle;rounded=0;orthogonalLoop=1;jettySize=auto;html=1;fontSize=24;" edge="1" parent="1" source="ya3OjVrlaqZjOPBKilio-30" target="ya3OjVrlaqZjOPBKilio-37">
          <mxGeometry relative="1" as="geometry" />
        </mxCell>
        <mxCell id="ya3OjVrlaqZjOPBKilio-29" value="p2" style="edgeLabel;html=1;align=center;verticalAlign=middle;resizable=0;points=[];fontSize=24;" vertex="1" connectable="0" parent="ya3OjVrlaqZjOPBKilio-28">
          <mxGeometry x="0.0182" relative="1" as="geometry">
            <mxPoint as="offset" />
          </mxGeometry>
        </mxCell>
        <mxCell id="ya3OjVrlaqZjOPBKilio-30" value="&lt;span style=&quot;font-weight: normal; font-size: 24px;&quot;&gt;?x&lt;/span&gt;" style="rounded=0;whiteSpace=wrap;html=1;fontStyle=1;fontSize=24;" vertex="1" parent="1">
          <mxGeometry x="730" y="1662" width="60" height="50" as="geometry" />
        </mxCell>
        <mxCell id="ya3OjVrlaqZjOPBKilio-31" value="s2" style="ellipse;whiteSpace=wrap;html=1;fontSize=24;" vertex="1" parent="1">
          <mxGeometry x="725" y="1557" width="70" height="60" as="geometry" />
        </mxCell>
        <mxCell id="ya3OjVrlaqZjOPBKilio-37" value="?y" style="rounded=0;whiteSpace=wrap;html=1;fontSize=24;" vertex="1" parent="1">
          <mxGeometry x="730" y="1767" width="60" height="50" as="geometry" />
        </mxCell>
        <mxCell id="ya3OjVrlaqZjOPBKilio-45" value="s3" style="ellipse;whiteSpace=wrap;html=1;fontSize=24;" vertex="1" parent="1">
          <mxGeometry x="873" y="1651" width="70" height="60" as="geometry" />
        </mxCell>
        <mxCell id="ya3OjVrlaqZjOPBKilio-46" style="edgeStyle=orthogonalEdgeStyle;rounded=0;orthogonalLoop=1;jettySize=auto;html=1;fontSize=24;" edge="1" parent="1" source="ya3OjVrlaqZjOPBKilio-50" target="ya3OjVrlaqZjOPBKilio-45">
          <mxGeometry relative="1" as="geometry" />
        </mxCell>
        <mxCell id="ya3OjVrlaqZjOPBKilio-47" value="pt" style="edgeLabel;html=1;align=center;verticalAlign=middle;resizable=0;points=[];fontSize=24;" vertex="1" connectable="0" parent="ya3OjVrlaqZjOPBKilio-46">
          <mxGeometry x="-0.1905" y="2" relative="1" as="geometry">
            <mxPoint as="offset" />
          </mxGeometry>
        </mxCell>
        <mxCell id="ya3OjVrlaqZjOPBKilio-48" style="edgeStyle=orthogonalEdgeStyle;rounded=0;orthogonalLoop=1;jettySize=auto;html=1;entryX=0.5;entryY=0;entryDx=0;entryDy=0;fontSize=24;" edge="1" parent="1" source="ya3OjVrlaqZjOPBKilio-50" target="ya3OjVrlaqZjOPBKilio-54">
          <mxGeometry relative="1" as="geometry" />
        </mxCell>
        <mxCell id="ya3OjVrlaqZjOPBKilio-49" value="p3" style="edgeLabel;html=1;align=center;verticalAlign=middle;resizable=0;points=[];fontSize=24;" vertex="1" connectable="0" parent="ya3OjVrlaqZjOPBKilio-48">
          <mxGeometry x="-0.2667" y="-1" relative="1" as="geometry">
            <mxPoint as="offset" />
          </mxGeometry>
        </mxCell>
        <mxCell id="ya3OjVrlaqZjOPBKilio-50" value="?y" style="rounded=0;whiteSpace=wrap;html=1;fontSize=24;" vertex="1" parent="1">
          <mxGeometry x="1013" y="1656" width="60" height="50" as="geometry" />
        </mxCell>
        <mxCell id="ya3OjVrlaqZjOPBKilio-51" value="s4" style="ellipse;whiteSpace=wrap;html=1;fontSize=24;" vertex="1" parent="1">
          <mxGeometry x="873" y="1751" width="70" height="60" as="geometry" />
        </mxCell>
        <mxCell id="ya3OjVrlaqZjOPBKilio-52" style="edgeStyle=orthogonalEdgeStyle;rounded=0;orthogonalLoop=1;jettySize=auto;html=1;entryX=1;entryY=0.5;entryDx=0;entryDy=0;fontSize=24;" edge="1" parent="1" source="ya3OjVrlaqZjOPBKilio-54" target="ya3OjVrlaqZjOPBKilio-51">
          <mxGeometry relative="1" as="geometry" />
        </mxCell>
        <mxCell id="ya3OjVrlaqZjOPBKilio-53" value="pt" style="edgeLabel;html=1;align=center;verticalAlign=middle;resizable=0;points=[];fontSize=24;" vertex="1" connectable="0" parent="ya3OjVrlaqZjOPBKilio-52">
          <mxGeometry x="-0.0762" relative="1" as="geometry">
            <mxPoint as="offset" />
          </mxGeometry>
        </mxCell>
        <mxCell id="ya3OjVrlaqZjOPBKilio-54" value="?z" style="rounded=0;whiteSpace=wrap;html=1;fontSize=24;" vertex="1" parent="1">
          <mxGeometry x="1013" y="1756" width="60" height="50" as="geometry" />
        </mxCell>
        <mxCell id="ya3OjVrlaqZjOPBKilio-57" value="子查询1" style="text;html=1;align=center;verticalAlign=middle;resizable=0;points=[];autosize=1;strokeColor=none;fillColor=none;fontSize=24;" vertex="1" parent="1">
          <mxGeometry x="653" y="1851" width="96" height="32" as="geometry" />
        </mxCell>
        <mxCell id="ya3OjVrlaqZjOPBKilio-58" value="子查询2" style="text;html=1;align=center;verticalAlign=middle;resizable=0;points=[];autosize=1;strokeColor=none;fillColor=none;fontSize=24;" vertex="1" parent="1">
          <mxGeometry x="921" y="1849" width="96" height="32" as="geometry" />
        </mxCell>
        <mxCell id="ya3OjVrlaqZjOPBKilio-60" value="" style="rounded=1;whiteSpace=wrap;html=1;fontSize=24;" vertex="1" parent="1">
          <mxGeometry x="556" y="2138" width="588" height="496" as="geometry" />
        </mxCell>
        <mxCell id="ya3OjVrlaqZjOPBKilio-61" value="" style="rounded=1;whiteSpace=wrap;html=1;fontSize=24;dashed=1;" vertex="1" parent="1">
          <mxGeometry x="860" y="2180" width="240" height="215" as="geometry" />
        </mxCell>
        <mxCell id="ya3OjVrlaqZjOPBKilio-62" value="" style="rounded=1;whiteSpace=wrap;html=1;fontSize=24;dashed=1;" vertex="1" parent="1">
          <mxGeometry x="582" y="2220.5" width="250" height="305.5" as="geometry" />
        </mxCell>
        <mxCell id="ya3OjVrlaqZjOPBKilio-63" value="" style="rounded=1;whiteSpace=wrap;html=1;fontSize=24;" vertex="1" parent="1">
          <mxGeometry x="144" y="2168" width="304" height="442" as="geometry" />
        </mxCell>
        <mxCell id="ya3OjVrlaqZjOPBKilio-64" value="s1" style="ellipse;whiteSpace=wrap;html=1;fontSize=24;" vertex="1" parent="1">
          <mxGeometry x="190" y="2300" width="70" height="60" as="geometry" />
        </mxCell>
        <mxCell id="ya3OjVrlaqZjOPBKilio-65" style="edgeStyle=orthogonalEdgeStyle;rounded=0;orthogonalLoop=1;jettySize=auto;html=1;fontSize=24;" edge="1" parent="1" source="ya3OjVrlaqZjOPBKilio-71" target="ya3OjVrlaqZjOPBKilio-64">
          <mxGeometry relative="1" as="geometry" />
        </mxCell>
        <mxCell id="ya3OjVrlaqZjOPBKilio-66" value="pt" style="edgeLabel;html=1;align=center;verticalAlign=middle;resizable=0;points=[];fontSize=24;" vertex="1" connectable="0" parent="ya3OjVrlaqZjOPBKilio-65">
          <mxGeometry x="-0.1333" y="-1" relative="1" as="geometry">
            <mxPoint as="offset" />
          </mxGeometry>
        </mxCell>
        <mxCell id="ya3OjVrlaqZjOPBKilio-67" style="edgeStyle=orthogonalEdgeStyle;rounded=0;orthogonalLoop=1;jettySize=auto;html=1;entryX=0.5;entryY=1;entryDx=0;entryDy=0;fontSize=24;" edge="1" parent="1" source="ya3OjVrlaqZjOPBKilio-71" target="ya3OjVrlaqZjOPBKilio-72">
          <mxGeometry relative="1" as="geometry" />
        </mxCell>
        <mxCell id="ya3OjVrlaqZjOPBKilio-68" value="p1" style="edgeLabel;html=1;align=center;verticalAlign=middle;resizable=0;points=[];fontSize=24;" vertex="1" connectable="0" parent="ya3OjVrlaqZjOPBKilio-67">
          <mxGeometry x="-0.2889" y="-1" relative="1" as="geometry">
            <mxPoint as="offset" />
          </mxGeometry>
        </mxCell>
        <mxCell id="ya3OjVrlaqZjOPBKilio-69" style="edgeStyle=orthogonalEdgeStyle;rounded=0;orthogonalLoop=1;jettySize=auto;html=1;fontSize=24;" edge="1" parent="1" source="ya3OjVrlaqZjOPBKilio-71" target="ya3OjVrlaqZjOPBKilio-78">
          <mxGeometry relative="1" as="geometry" />
        </mxCell>
        <mxCell id="ya3OjVrlaqZjOPBKilio-70" value="p2" style="edgeLabel;html=1;align=center;verticalAlign=middle;resizable=0;points=[];fontSize=24;" vertex="1" connectable="0" parent="ya3OjVrlaqZjOPBKilio-69">
          <mxGeometry x="0.0182" relative="1" as="geometry">
            <mxPoint as="offset" />
          </mxGeometry>
        </mxCell>
        <mxCell id="ya3OjVrlaqZjOPBKilio-71" value="&lt;span style=&quot;font-weight: normal; font-size: 24px;&quot;&gt;?x&lt;/span&gt;" style="rounded=0;whiteSpace=wrap;html=1;fontStyle=1;fontSize=24;" vertex="1" parent="1">
          <mxGeometry x="330" y="2305" width="60" height="50" as="geometry" />
        </mxCell>
        <mxCell id="ya3OjVrlaqZjOPBKilio-72" value="s2" style="ellipse;whiteSpace=wrap;html=1;fontSize=24;" vertex="1" parent="1">
          <mxGeometry x="325" y="2200" width="70" height="60" as="geometry" />
        </mxCell>
        <mxCell id="ya3OjVrlaqZjOPBKilio-73" value="s3" style="ellipse;whiteSpace=wrap;html=1;fontSize=24;" vertex="1" parent="1">
          <mxGeometry x="190" y="2405" width="70" height="60" as="geometry" />
        </mxCell>
        <mxCell id="ya3OjVrlaqZjOPBKilio-74" style="edgeStyle=orthogonalEdgeStyle;rounded=0;orthogonalLoop=1;jettySize=auto;html=1;fontSize=24;" edge="1" parent="1" source="ya3OjVrlaqZjOPBKilio-78" target="ya3OjVrlaqZjOPBKilio-73">
          <mxGeometry relative="1" as="geometry" />
        </mxCell>
        <mxCell id="ya3OjVrlaqZjOPBKilio-75" value="pt" style="edgeLabel;html=1;align=center;verticalAlign=middle;resizable=0;points=[];fontSize=24;" vertex="1" connectable="0" parent="ya3OjVrlaqZjOPBKilio-74">
          <mxGeometry x="-0.1905" y="2" relative="1" as="geometry">
            <mxPoint as="offset" />
          </mxGeometry>
        </mxCell>
        <mxCell id="ya3OjVrlaqZjOPBKilio-76" style="edgeStyle=orthogonalEdgeStyle;rounded=0;orthogonalLoop=1;jettySize=auto;html=1;entryX=0.5;entryY=0;entryDx=0;entryDy=0;fontSize=24;" edge="1" parent="1" source="ya3OjVrlaqZjOPBKilio-78" target="ya3OjVrlaqZjOPBKilio-82">
          <mxGeometry relative="1" as="geometry" />
        </mxCell>
        <mxCell id="ya3OjVrlaqZjOPBKilio-77" value="p3" style="edgeLabel;html=1;align=center;verticalAlign=middle;resizable=0;points=[];fontSize=24;" vertex="1" connectable="0" parent="ya3OjVrlaqZjOPBKilio-76">
          <mxGeometry x="-0.2667" y="-1" relative="1" as="geometry">
            <mxPoint as="offset" />
          </mxGeometry>
        </mxCell>
        <mxCell id="ya3OjVrlaqZjOPBKilio-78" value="?y" style="rounded=0;whiteSpace=wrap;html=1;fontSize=24;" vertex="1" parent="1">
          <mxGeometry x="330" y="2410" width="60" height="50" as="geometry" />
        </mxCell>
        <mxCell id="ya3OjVrlaqZjOPBKilio-79" value="s4" style="ellipse;whiteSpace=wrap;html=1;fontSize=24;" vertex="1" parent="1">
          <mxGeometry x="190" y="2505" width="70" height="60" as="geometry" />
        </mxCell>
        <mxCell id="ya3OjVrlaqZjOPBKilio-80" style="edgeStyle=orthogonalEdgeStyle;rounded=0;orthogonalLoop=1;jettySize=auto;html=1;entryX=1;entryY=0.5;entryDx=0;entryDy=0;fontSize=24;" edge="1" parent="1" source="ya3OjVrlaqZjOPBKilio-82" target="ya3OjVrlaqZjOPBKilio-79">
          <mxGeometry relative="1" as="geometry" />
        </mxCell>
        <mxCell id="ya3OjVrlaqZjOPBKilio-81" value="pt" style="edgeLabel;html=1;align=center;verticalAlign=middle;resizable=0;points=[];fontSize=24;" vertex="1" connectable="0" parent="ya3OjVrlaqZjOPBKilio-80">
          <mxGeometry x="-0.0762" relative="1" as="geometry">
            <mxPoint as="offset" />
          </mxGeometry>
        </mxCell>
        <mxCell id="ya3OjVrlaqZjOPBKilio-82" value="?z" style="rounded=0;whiteSpace=wrap;html=1;fontSize=24;" vertex="1" parent="1">
          <mxGeometry x="330" y="2510" width="60" height="50" as="geometry" />
        </mxCell>
        <mxCell id="ya3OjVrlaqZjOPBKilio-83" value="s1" style="ellipse;whiteSpace=wrap;html=1;fontSize=24;" vertex="1" parent="1">
          <mxGeometry x="600" y="2350" width="70" height="60" as="geometry" />
        </mxCell>
        <mxCell id="ya3OjVrlaqZjOPBKilio-84" style="edgeStyle=orthogonalEdgeStyle;rounded=0;orthogonalLoop=1;jettySize=auto;html=1;fontSize=24;" edge="1" parent="1" source="ya3OjVrlaqZjOPBKilio-90" target="ya3OjVrlaqZjOPBKilio-83">
          <mxGeometry relative="1" as="geometry" />
        </mxCell>
        <mxCell id="ya3OjVrlaqZjOPBKilio-85" value="pt" style="edgeLabel;html=1;align=center;verticalAlign=middle;resizable=0;points=[];fontSize=24;" vertex="1" connectable="0" parent="ya3OjVrlaqZjOPBKilio-84">
          <mxGeometry x="-0.1333" y="-1" relative="1" as="geometry">
            <mxPoint as="offset" />
          </mxGeometry>
        </mxCell>
        <mxCell id="ya3OjVrlaqZjOPBKilio-123" value="p1" style="rounded=0;orthogonalLoop=1;jettySize=auto;html=1;entryX=0.5;entryY=1;entryDx=0;entryDy=0;fontSize=24;" edge="1" parent="1" source="ya3OjVrlaqZjOPBKilio-90" target="ya3OjVrlaqZjOPBKilio-122">
          <mxGeometry relative="1" as="geometry" />
        </mxCell>
        <mxCell id="ya3OjVrlaqZjOPBKilio-90" value="&lt;span style=&quot;font-weight: normal; font-size: 24px;&quot;&gt;?x&lt;/span&gt;" style="rounded=0;whiteSpace=wrap;html=1;fontStyle=1;fontSize=24;" vertex="1" parent="1">
          <mxGeometry x="740" y="2355" width="60" height="50" as="geometry" />
        </mxCell>
        <mxCell id="ya3OjVrlaqZjOPBKilio-93" value="s3" style="ellipse;whiteSpace=wrap;html=1;fontSize=24;" vertex="1" parent="1">
          <mxGeometry x="880" y="2224" width="70" height="60" as="geometry" />
        </mxCell>
        <mxCell id="ya3OjVrlaqZjOPBKilio-94" style="edgeStyle=orthogonalEdgeStyle;rounded=0;orthogonalLoop=1;jettySize=auto;html=1;fontSize=24;" edge="1" parent="1" source="ya3OjVrlaqZjOPBKilio-98" target="ya3OjVrlaqZjOPBKilio-93">
          <mxGeometry relative="1" as="geometry" />
        </mxCell>
        <mxCell id="ya3OjVrlaqZjOPBKilio-95" value="pt" style="edgeLabel;html=1;align=center;verticalAlign=middle;resizable=0;points=[];fontSize=24;" vertex="1" connectable="0" parent="ya3OjVrlaqZjOPBKilio-94">
          <mxGeometry x="-0.1905" y="2" relative="1" as="geometry">
            <mxPoint as="offset" />
          </mxGeometry>
        </mxCell>
        <mxCell id="ya3OjVrlaqZjOPBKilio-96" style="edgeStyle=orthogonalEdgeStyle;rounded=0;orthogonalLoop=1;jettySize=auto;html=1;entryX=0.5;entryY=0;entryDx=0;entryDy=0;fontSize=24;" edge="1" parent="1" source="ya3OjVrlaqZjOPBKilio-98" target="ya3OjVrlaqZjOPBKilio-102">
          <mxGeometry relative="1" as="geometry" />
        </mxCell>
        <mxCell id="ya3OjVrlaqZjOPBKilio-97" value="p3" style="edgeLabel;html=1;align=center;verticalAlign=middle;resizable=0;points=[];fontSize=24;" vertex="1" connectable="0" parent="ya3OjVrlaqZjOPBKilio-96">
          <mxGeometry x="-0.2667" y="-1" relative="1" as="geometry">
            <mxPoint as="offset" />
          </mxGeometry>
        </mxCell>
        <mxCell id="ya3OjVrlaqZjOPBKilio-98" value="?y" style="rounded=0;whiteSpace=wrap;html=1;fontSize=24;" vertex="1" parent="1">
          <mxGeometry x="1020" y="2229" width="60" height="50" as="geometry" />
        </mxCell>
        <mxCell id="ya3OjVrlaqZjOPBKilio-102" value="?z" style="rounded=0;whiteSpace=wrap;html=1;fontSize=24;" vertex="1" parent="1">
          <mxGeometry x="1020" y="2329" width="60" height="50" as="geometry" />
        </mxCell>
        <mxCell id="ya3OjVrlaqZjOPBKilio-103" value="子查询1" style="text;html=1;align=center;verticalAlign=middle;resizable=0;points=[];autosize=1;strokeColor=none;fillColor=none;fontSize=24;" vertex="1" parent="1">
          <mxGeometry x="655" y="2543" width="96" height="32" as="geometry" />
        </mxCell>
        <mxCell id="ya3OjVrlaqZjOPBKilio-104" value="子查询3" style="text;html=1;align=center;verticalAlign=middle;resizable=0;points=[];autosize=1;strokeColor=none;fillColor=none;fontSize=24;" vertex="1" parent="1">
          <mxGeometry x="928" y="2402" width="96" height="32" as="geometry" />
        </mxCell>
        <mxCell id="ya3OjVrlaqZjOPBKilio-113" value="" style="rounded=1;whiteSpace=wrap;html=1;fontSize=24;dashed=1;" vertex="1" parent="1">
          <mxGeometry x="855" y="2443" width="250" height="132" as="geometry" />
        </mxCell>
        <mxCell id="ya3OjVrlaqZjOPBKilio-114" value="s4" style="ellipse;whiteSpace=wrap;html=1;fontSize=24;" vertex="1" parent="1">
          <mxGeometry x="873" y="2483" width="70" height="60" as="geometry" />
        </mxCell>
        <mxCell id="ya3OjVrlaqZjOPBKilio-115" style="edgeStyle=orthogonalEdgeStyle;rounded=0;orthogonalLoop=1;jettySize=auto;html=1;fontSize=24;" edge="1" parent="1" source="ya3OjVrlaqZjOPBKilio-117" target="ya3OjVrlaqZjOPBKilio-114">
          <mxGeometry relative="1" as="geometry" />
        </mxCell>
        <mxCell id="ya3OjVrlaqZjOPBKilio-116" value="pt" style="edgeLabel;html=1;align=center;verticalAlign=middle;resizable=0;points=[];fontSize=24;" vertex="1" connectable="0" parent="ya3OjVrlaqZjOPBKilio-115">
          <mxGeometry x="-0.1333" y="-1" relative="1" as="geometry">
            <mxPoint as="offset" />
          </mxGeometry>
        </mxCell>
        <mxCell id="ya3OjVrlaqZjOPBKilio-117" value="&lt;span style=&quot;font-weight: normal; font-size: 24px;&quot;&gt;?z&lt;/span&gt;" style="rounded=0;whiteSpace=wrap;html=1;fontStyle=1;fontSize=24;" vertex="1" parent="1">
          <mxGeometry x="1013" y="2488" width="60" height="50" as="geometry" />
        </mxCell>
        <mxCell id="ya3OjVrlaqZjOPBKilio-118" value="子查询2" style="text;html=1;align=center;verticalAlign=middle;resizable=0;points=[];autosize=1;strokeColor=none;fillColor=none;fontSize=24;" vertex="1" parent="1">
          <mxGeometry x="936" y="2586" width="96" height="32" as="geometry" />
        </mxCell>
        <mxCell id="ya3OjVrlaqZjOPBKilio-119" style="edgeStyle=orthogonalEdgeStyle;rounded=0;orthogonalLoop=1;jettySize=auto;html=1;fontSize=24;" edge="1" parent="1" target="ya3OjVrlaqZjOPBKilio-121">
          <mxGeometry relative="1" as="geometry">
            <mxPoint x="771" y="2405" as="sourcePoint" />
          </mxGeometry>
        </mxCell>
        <mxCell id="ya3OjVrlaqZjOPBKilio-120" value="p2" style="edgeLabel;html=1;align=center;verticalAlign=middle;resizable=0;points=[];fontSize=24;" vertex="1" connectable="0" parent="ya3OjVrlaqZjOPBKilio-119">
          <mxGeometry x="0.0182" relative="1" as="geometry">
            <mxPoint as="offset" />
          </mxGeometry>
        </mxCell>
        <mxCell id="ya3OjVrlaqZjOPBKilio-121" value="?y" style="rounded=0;whiteSpace=wrap;html=1;fontSize=24;" vertex="1" parent="1">
          <mxGeometry x="741" y="2460" width="60" height="50" as="geometry" />
        </mxCell>
        <mxCell id="ya3OjVrlaqZjOPBKilio-122" value="s2" style="ellipse;whiteSpace=wrap;html=1;fontSize=24;" vertex="1" parent="1">
          <mxGeometry x="736" y="2239.5" width="70" height="60" as="geometry" />
        </mxCell>
        <mxCell id="ya3OjVrlaqZjOPBKilio-124" value="" style="shape=flexArrow;endArrow=classic;html=1;rounded=0;fontSize=24;endWidth=28.9179548156956;endSize=8.448275862068966;width=22.06896551724138;" edge="1" parent="1">
          <mxGeometry width="50" height="50" relative="1" as="geometry">
            <mxPoint x="464" y="2381" as="sourcePoint" />
            <mxPoint x="541" y="2379" as="targetPoint" />
          </mxGeometry>
        </mxCell>
        <mxCell id="ya3OjVrlaqZjOPBKilio-125" value="" style="shape=flexArrow;endArrow=classic;html=1;rounded=0;fontSize=24;endWidth=28.9179548156956;endSize=8.448275862068966;width=22.06896551724138;" edge="1" parent="1">
          <mxGeometry width="50" height="50" relative="1" as="geometry">
            <mxPoint x="460" y="1728" as="sourcePoint" />
            <mxPoint x="537" y="1726.0000000000005" as="targetPoint" />
          </mxGeometry>
        </mxCell>
      </root>
    </mxGraphModel>
  </diagram>
</mxfile>
